<svg width="14" height="16" viewBox="0 0 14 16" fill="none" xmlns="http://www.w3.org/2000/svg">
<path d="M13.4991 12.4474L12.7786 11.7269C13.1542 11.1598 13.3765 10.4776 13.3765 9.74179C13.3765 7.74898 11.7592 6.13173 9.76643 6.13173C7.77362 6.13173 6.15637 7.74898 6.15637 9.74179C6.15637 11.7346 7.77362 13.3518 9.76643 13.3518C10.5022 13.3518 11.1767 13.1296 11.7516 12.754L12.4721 13.4745C12.6177 13.6201 12.8016 13.6891 12.9933 13.6891C13.1849 13.6891 13.3688 13.6201 13.5145 13.4745C13.7827 13.1986 13.7827 12.7387 13.4991 12.4474Z" fill="#5107AF"/>
<path d="M13.1525 1.54826V3.24982C13.1525 3.87066 12.7693 4.64479 12.3861 5.03569L12.2481 5.15832C12.1408 5.25796 11.9799 5.28096 11.8419 5.23497C11.6886 5.18131 11.5353 5.14299 11.382 5.10467C11.0448 5.02036 10.6845 4.98203 10.3166 4.98203C7.67231 4.98203 5.52622 7.12814 5.52622 9.77245C5.52622 10.6462 5.76383 11.5047 6.21603 12.2405C6.59926 12.8843 7.13578 13.4208 7.7183 13.7811C7.89459 13.896 7.96357 14.1413 7.81028 14.2793C7.75662 14.3253 7.70297 14.3636 7.64932 14.4019L6.57626 15.0994C5.57987 15.7202 4.2079 15.0227 4.2079 13.7811V9.68047C4.2079 9.13628 3.90131 8.4388 3.59473 8.05556L0.68982 4.95904C0.306587 4.56814 0 3.87066 0 3.41078V1.62491C0 0.697485 0.68982 0 1.52527 0H11.6273C12.4627 0 13.1525 0.697485 13.1525 1.54826Z" fill="#5107AF"/>
</svg>