<svg width="29" height="30" viewBox="0 0 29 30" fill="none" xmlns="http://www.w3.org/2000/svg">
<path d="M14.5016 22.4585C15.8069 22.4585 16.8651 21.3909 16.8651 20.0737C16.8651 18.7566 15.8069 17.6888 14.5016 17.6888C13.1963 17.6888 12.1381 18.7566 12.1381 20.0737C12.1381 21.3909 13.1963 22.4585 14.5016 22.4585Z" fill="#292D32"/>
<path d="M23.606 11.0173V9.18836C23.606 5.23795 22.6635 0 14.5 0C6.3365 0 5.394 5.23795 5.394 9.18836V11.0173C1.334 11.5293 0 13.607 0 18.7132V21.4346C0 27.4334 1.8125 29.2623 7.7575 29.2623H21.2425C27.1875 29.2623 29 27.4334 29 21.4346V18.7132C29 13.607 27.666 11.5293 23.606 11.0173ZM14.5 24.4926C12.0785 24.4926 10.121 22.5027 10.121 20.0739C10.121 17.6305 12.093 15.6553 14.5 15.6553C16.907 15.6553 18.879 17.6452 18.879 20.0739C18.879 22.5173 16.9215 24.4926 14.5 24.4926ZM7.7575 10.8856C7.6415 10.8856 7.54 10.8856 7.424 10.8856V9.18836C7.424 4.90144 8.6275 2.04836 14.5 2.04836C20.3725 2.04836 21.576 4.90144 21.576 9.18836V10.9002C21.46 10.9002 21.3585 10.9002 21.2425 10.9002H7.7575V10.8856Z" fill="#292D32"/>
</svg>