<svg width="20" height="19" viewBox="0 0 20 19" fill="none" xmlns="http://www.w3.org/2000/svg">
<path d="M18.091 6.55091C16.2819 6.55091 15.5422 5.29167 16.4418 3.74713C16.9615 2.85189 16.6517 1.7107 15.7421 1.19913L14.013 0.225189C13.2234 -0.237189 12.2039 0.0382705 11.7341 0.815459L11.6242 1.00238C10.7246 2.54692 9.24538 2.54692 8.33583 1.00238L8.22589 0.815459C7.77611 0.0382705 6.75662 -0.237189 5.96702 0.225189L4.23788 1.19913C3.32834 1.7107 3.01849 2.86173 3.53823 3.75697C4.44778 5.29167 3.70815 6.55091 1.89905 6.55091C0.85957 6.55091 0 7.38713 0 8.4201V10.1516C0 11.1747 0.849575 12.0207 1.89905 12.0207C3.70815 12.0207 4.44778 13.28 3.53823 14.8245C3.01849 15.7198 3.32834 16.861 4.23788 17.3725L5.96702 18.3465C6.75662 18.8088 7.77611 18.5334 8.24588 17.7562L8.35582 17.5693C9.25537 16.0247 10.7346 16.0247 11.6442 17.5693L11.7541 17.7562C12.2239 18.5334 13.2434 18.8088 14.033 18.3465L15.7621 17.3725C16.6717 16.861 16.9815 15.7099 16.4618 14.8245C15.5522 13.28 16.2919 12.0207 18.101 12.0207C19.1404 12.0207 20 11.1845 20 10.1516V8.4201C19.99 7.39697 19.1404 6.55091 18.091 6.55091ZM9.995 12.4831C8.2059 12.4831 6.74663 11.0468 6.74663 9.28583C6.74663 7.52486 8.2059 6.08854 9.995 6.08854C11.7841 6.08854 13.2434 7.52486 13.2434 9.28583C13.2434 11.0468 11.7841 12.4831 9.995 12.4831Z" fill="#CECECE"/>
</svg>