<svg width="23" height="25" viewBox="0 0 23 25" fill="none" xmlns="http://www.w3.org/2000/svg">
<path d="M20.7375 4.8125L13.3125 0.525C12.1 -0.175 10.6 -0.175 9.37502 0.525L1.96249 4.8125C0.749987 5.5125 0 6.8125 0 8.225V16.775C0 18.175 0.749987 19.475 1.96249 20.1875L9.38752 24.475C10.6 25.175 12.1 25.175 13.325 24.475L20.75 20.1875C21.9625 19.4875 22.7125 18.1875 22.7125 16.775V8.225C22.7 6.8125 21.95 5.525 20.7375 4.8125ZM11.35 6.675C12.9625 6.675 14.2625 7.975 14.2625 9.5875C14.2625 11.2 12.9625 12.5 11.35 12.5C9.73752 12.5 8.4375 11.2 8.4375 9.5875C8.4375 7.9875 9.73752 6.675 11.35 6.675ZM14.7 18.325H7.99999C6.98749 18.325 6.39999 17.2 6.96249 16.3625C7.81249 15.1 9.46252 14.25 11.35 14.25C13.2375 14.25 14.8875 15.1 15.7375 16.3625C16.3 17.1875 15.7 18.325 14.7 18.325Z" fill="#5107AF"/>
</svg>