<svg width="28" height="29" viewBox="0 0 28 29" fill="none" xmlns="http://www.w3.org/2000/svg">
<path d="M25.5652 5.5825L16.4117 0.609C14.9169 -0.203 13.0677 -0.203 11.5575 0.609L2.41935 5.5825C0.924584 6.3945 0 7.9025 0 9.541V19.459C0 21.083 0.924584 22.591 2.41935 23.4175L11.5729 28.391C13.0677 29.203 14.9169 29.203 16.4271 28.391L25.5806 23.4175C27.0754 22.6055 28 21.0975 28 19.459V9.541C27.9846 7.9025 27.06 6.409 25.5652 5.5825ZM13.9923 7.743C15.9802 7.743 17.5828 9.251 17.5828 11.1215C17.5828 12.992 15.9802 14.5 13.9923 14.5C12.0044 14.5 10.4018 12.992 10.4018 11.1215C10.4018 9.2655 12.0044 7.743 13.9923 7.743ZM18.1222 21.257H9.86238C8.61417 21.257 7.8899 19.952 8.58335 18.9805C9.63123 17.516 11.6654 16.53 13.9923 16.53C16.3192 16.53 18.3533 17.516 19.4012 18.9805C20.0947 19.9375 19.355 21.257 18.1222 21.257Z" fill="#0C0C0C"/>
</svg>